<svg width="366" height="250" viewBox="0 0 366 250" fill="none" xmlns="http://www.w3.org/2000/svg">
<path d="M59.468 218.992C56.888 218.992 54.136 218.734 51.212 218.218C39.516 215.81 29.884 210.306 22.316 201.706C14.92 193.106 9.416 182.614 5.804 170.23C2.364 157.674 0.644 144.43 0.644 130.498C0.644 118.802 2.364 107.106 5.804 95.41C9.416 83.714 14.318 72.706 20.51 62.386C26.702 52.066 33.84 42.95 41.924 35.038C50.18 26.954 58.952 20.676 68.24 16.204C77.7 11.56 87.332 9.238 97.136 9.238C105.564 9.238 112.358 10.958 117.518 14.398C122.678 17.666 126.462 22.052 128.87 27.556C131.278 32.888 132.482 38.736 132.482 45.1C132.482 51.292 131.364 57.57 129.128 63.934C127.064 70.126 124.054 75.888 120.098 81.22C116.142 86.552 111.412 90.852 105.908 94.12C100.404 97.216 94.298 98.764 87.59 98.764C84.322 98.764 80.71 98.248 76.754 97.216C75.378 96.7 74.69 96.184 74.69 95.668C74.69 94.808 75.722 94.378 77.786 94.378C78.818 94.378 79.592 94.464 80.108 94.636C82 95.152 83.806 95.41 85.526 95.41C90.342 95.41 94.986 93.862 99.458 90.766C104.102 87.67 108.23 83.628 111.842 78.64C115.454 73.652 118.292 68.234 120.356 62.386C122.42 56.366 123.452 50.518 123.452 44.842C123.452 37.618 121.474 31.254 117.518 25.75C113.562 20.246 106.94 16.892 97.652 15.688C96.792 15.516 95.846 15.43 94.814 15.43C93.782 15.258 92.836 15.172 91.976 15.172C83.72 15.172 75.636 17.408 67.724 21.88C59.984 26.18 52.76 32.2 46.052 39.94C39.516 47.508 33.754 56.28 28.766 66.256C23.778 76.232 19.822 86.81 16.898 97.99C14.146 108.998 12.77 120.092 12.77 131.272C12.77 144.688 14.146 157.416 16.898 169.456C19.65 181.324 24.036 191.3 30.056 199.384C36.248 207.468 44.332 212.456 54.308 214.348C55.168 214.52 56.028 214.606 56.888 214.606C57.748 214.778 58.522 214.864 59.21 214.864C67.81 214.864 74.174 210.822 78.302 202.738C82.602 194.654 84.752 184.764 84.752 173.068C84.752 167.048 84.236 160.856 83.204 154.492C77.356 155.18 71.508 156.384 65.66 158.104C59.984 159.824 54.308 161.888 48.632 164.296C48.288 164.468 47.858 164.554 47.342 164.554C46.482 164.554 45.794 164.124 45.278 163.264C44.934 162.404 44.762 161.372 44.762 160.168C44.762 158.964 45.02 157.846 45.536 156.814C46.052 155.61 46.912 154.836 48.116 154.492C54.308 152.084 60.5 150.364 66.692 149.332C72.884 148.3 79.162 147.784 85.526 147.784C92.406 147.784 99.372 148.386 106.424 149.59C113.648 150.794 120.958 152.6 128.354 155.008C131.278 155.868 132.74 156.9 132.74 158.104C132.74 158.448 132.224 158.62 131.192 158.62C130.332 158.62 128.612 158.362 126.032 157.846C121.216 156.298 116.314 155.18 111.326 154.492C106.51 153.804 101.694 153.46 96.878 153.46C95.158 153.46 93.438 153.546 91.718 153.718C89.998 153.718 88.278 153.804 86.558 153.976C90.17 163.436 91.976 172.38 91.976 180.808C91.976 192.16 88.966 201.362 82.946 208.414C76.926 215.466 69.1 218.992 59.468 218.992ZM162.938 249.694C156.23 249.694 149.78 247.2 143.588 242.212C137.396 237.396 132.064 229.398 127.592 218.218C126.044 214.262 124.926 210.134 124.238 205.834C123.55 201.534 123.206 197.234 123.206 192.934C123.206 185.882 123.98 178.83 125.528 171.778C127.076 164.726 129.054 158.104 131.462 151.912C133.354 147.44 136.02 142.452 139.46 136.948C142.9 131.272 146.168 126.628 149.264 123.016C150.296 121.984 151.586 120.866 153.134 119.662C154.682 118.286 155.714 117.598 156.23 117.598C156.402 117.598 156.488 117.684 156.488 117.856C156.488 118.372 155.026 120.436 152.102 124.048C145.05 132.648 139.804 142.452 136.364 153.46C133.096 164.296 131.462 175.046 131.462 185.71C131.462 192.074 131.978 198.18 133.01 204.028C134.214 209.876 135.762 215.294 137.654 220.282C141.266 229.398 145.136 235.934 149.264 239.89C153.564 243.846 158.036 245.824 162.68 245.824C168.528 245.824 174.462 243.33 180.482 238.342C186.502 233.354 192.35 226.732 198.026 218.476C203.874 210.22 209.292 201.276 214.28 191.644C219.268 182.012 223.568 172.466 227.18 163.006C230.964 153.374 233.716 144.774 235.436 137.206L239.306 121.21C238.446 121.038 238.016 120.694 238.016 120.178C238.016 119.318 238.704 118.458 240.08 117.598C242.144 108.31 243.692 99.194 244.724 90.25C245.928 81.306 246.53 73.05 246.53 65.482C246.53 57.226 245.756 50.002 244.208 43.81C242.832 37.446 240.51 32.63 237.242 29.362C235.866 27.986 234.318 27.298 232.598 27.298C231.394 27.298 230.104 27.642 228.728 28.33C227.524 29.018 226.32 29.878 225.116 30.91C223.912 32.114 223.74 31.856 224.6 30.136C225.632 28.244 227.266 26.18 229.502 23.944C231.91 21.708 234.49 20.59 237.242 20.59C238.79 20.59 240.338 21.106 241.886 22.138C247.39 25.922 251.26 31.684 253.496 39.424C255.904 47.164 257.108 56.108 257.108 66.256C257.108 72.964 256.678 80.016 255.818 87.412C254.958 94.808 253.754 102.376 252.206 110.116C252.55 110.46 252.808 110.89 252.98 111.406C253.324 111.922 253.668 112.438 254.012 112.954C274.824 106.246 291.508 99.108 304.064 91.54C316.792 83.972 325.994 76.318 331.67 68.578C337.518 60.838 340.442 53.442 340.442 46.39C340.442 38.994 337.69 32.372 332.186 26.524C326.682 20.676 319.114 16.032 309.482 12.592C299.85 9.15199 288.756 7.43199 276.2 7.43199C264.504 7.43199 252.378 9.06599 239.822 12.334C228.47 15.43 217.634 19.988 207.314 26.008C197.166 31.856 188.05 38.392 179.966 45.616C172.054 52.84 165.604 59.978 160.616 67.03C155.8 74.082 153.048 80.274 152.36 85.606C152.016 89.39 151.328 92.142 150.296 93.862C149.436 95.582 148.576 96.442 147.716 96.442C145.136 96.442 143.846 93.346 143.846 87.154C143.846 86.294 143.846 85.434 143.846 84.574C144.018 83.714 144.19 82.854 144.362 81.994C145.394 74.254 148.834 66.514 154.682 58.774C160.702 51.034 168.27 43.81 177.386 37.102C186.674 30.222 196.822 24.116 207.83 18.784C218.838 13.452 229.846 9.32399 240.854 6.39999C247.906 4.50799 254.786 3.13199 261.494 2.27199C268.374 1.412 274.996 0.981996 281.36 0.981996C295.292 0.981996 307.59 2.87399 318.254 6.65798C328.918 10.442 337.26 15.602 343.28 22.138C349.3 28.502 352.31 35.812 352.31 44.068C352.31 50.948 349.73 58.258 344.57 65.998C339.41 73.738 331.154 81.478 319.802 89.218C308.45 96.958 293.486 104.44 274.91 111.664C271.126 113.04 267.686 114.244 264.59 115.276C261.666 116.308 259 117.254 256.592 118.114C260.032 124.306 264.504 131.53 270.008 139.786C275.512 148.042 281.36 156.384 287.552 164.812C293.916 173.24 300.194 180.894 306.386 187.774C312.578 194.654 318.168 199.9 323.156 203.512C326.252 205.748 329.864 207.984 333.992 210.22C338.292 212.628 342.42 213.832 346.376 213.832C350.332 213.832 353.342 212.714 355.406 210.478C357.47 208.414 358.932 205.748 359.792 202.48C360.652 199.212 361.082 195.944 361.082 192.676C361.082 181.496 357.814 171.176 351.278 161.716C350.762 160.856 350.504 160.34 350.504 160.168C350.504 159.652 350.762 159.394 351.278 159.394C352.31 159.394 353.342 160.082 354.374 161.458C357.814 165.586 360.566 170.402 362.63 175.906C364.694 181.41 365.726 186.914 365.726 192.418C365.726 200.846 363.232 207.898 358.244 213.574C353.428 219.422 346.806 222.346 338.378 222.346C329.606 222.346 321.436 219.938 313.868 215.122C306.472 210.306 299.592 203.942 293.228 196.03C286.864 188.118 281.102 179.604 275.942 170.488C270.782 161.2 266.224 152.084 262.268 143.14C258.312 134.196 254.872 126.284 251.948 119.404L250.142 119.92C247.39 131.788 244.208 143.312 240.596 154.492C237.156 165.672 233.544 175.82 229.76 184.936C225.116 196.288 219.096 206.866 211.7 216.67C204.476 226.646 196.564 234.644 187.964 240.664C179.536 246.684 171.194 249.694 162.938 249.694Z" fill="white"/>
</svg>
